<?xml version="1.0" encoding="utf-8"?>
<!-- Generator: Adobe Illustrator 28.2.0, SVG Export Plug-In . SVG Version: 6.00 Build 0)  -->
<svg version="1.1" xmlns="http://www.w3.org/2000/svg" xmlns:xlink="http://www.w3.org/1999/xlink" x="0px" y="0px"
	 viewBox="0 0 272.56 463.12" style="enable-background:new 0 0 272.56 463.12;" xml:space="preserve">
<style type="text/css">
	.st0{display:none;}
	.st1{display:inline;}
	.st2{fill:#FFFFFF;}
	.st3{fill:#168A91;}
	.st4{fill:#0E335F;}
	.st5{opacity:0;}
</style>
<g id="Layer_3" class="st0">
	<path class="st1" d="M361.93,216.51c-0.96-21.42-17.81-41.15-40.5-40.5c-40.19,1.15-80.72,2.56-120.63,8
		c-8.22,0.66-16.44,1.44-24.63,2.42c-10.65,1.27-21.31,2.67-31.89,4.45c-6.04,1.02-11.71,2.95-17.07,6.18
		c-4.59,2.77-7.64,6.02-11.02,9.29c-0.27,0.15-0.54,0.29-0.81,0.44c-6.6,2.29-13.38,4.14-19.97,6.46
		c-11.99,4.22-23.74,9.18-35.34,14.38c-12.61,5.66-20.06,21.89-20.06,34.97c0,13.13,7.46,29.24,20.06,34.97
		c1.55,0.71,3.09,1.42,4.59,2.19c-4.54,3.24-8.97,6.65-13.37,10.11c-2.64,2.08-5.11,4.32-7.54,6.6c-9.87,2.78-18.7,9.02-23.58,18.25
		c-10.38,19.65-4.85,43.71,14.53,55.41c19.59,11.84,42.65,5.78,58.49-9.15c4.01-3.78,7.9-7.56,12.07-11.11
		c9.58-6.81,19.84-12.54,30.54-17.42c1.83-0.71,3.66-1.4,5.5-2.07c4.67,0.89,9.35,1.42,13.77,1.34c7.5-0.15,14.49-1.68,20.93-4.32
		c4.58-0.77,9.01-2.48,12.99-5.29c3.08-2.18,6.16-4.35,9.26-6.53c10.96-2.04,21.98-3.81,32.97-5.54c5.66-0.89,10.16-1.73,15.52-3.99
		c10.38-4.38,17.87-11.12,24.12-20.57c3.12-4.73,5.23-9.91,7.42-15.12c3.42-8.1,5.71-15.19,6.2-24.21c0.11-2.01,0.06-3.98-0.11-5.92
		c12.37-0.8,24.72-1.79,37.04-3.2c11.08-1.27,20.45-3.68,28.64-11.86C357.09,238.13,362.38,226.6,361.93,216.51z"/>
</g>
<g id="Layer_1">
	<g>
		<path class="st2" d="M165.53,400.6c0-13.99-0.1-27.26,0.15-40.53c0.03-1.36,1.86-3.03,3.26-3.97c5.15-3.46,8.36-8.18,9.25-14.2
			c0.42-2.87,1.49-4.36,4.17-5.39c7.02-2.7,10.49-8.17,10.16-15.53c-0.18-4.03,0.68-7.07,3.13-10.37c1.83-2.46,3.18-6.33,2.71-9.24
			c-1.18-7.24,5.27-11.68,5.68-18.16c0.03-0.43,1.29-1.15,1.95-1.12c7.42,0.43,14.84,0.84,22.23,1.56
			c3.93,0.38,7.89,2.31,11.67,1.91c15.23-1.61,24.01-20.15,15.03-32.55c-6.89-9.52-15.26-17.97-23-26.86
			c-1.79-2.06-4.08-3.38-2.45-7.12c5.66-12.98-2.36-24.82-16.55-25.19c-1.59-0.04-3.59-0.78-4.64-1.9
			c-7.52-8.01-15.26-9.32-25.18-4.44c-1.9,0.93-4.75,1.19-6.71,0.5c-8.24-2.92-16.29-1.09-21.34,5.99c-2.02,2.83-4.2,3.68-7.44,3.75
			c-7.78,0.16-13.18,4.34-16.08,11.25c-0.75,1.78-2.71,3.49-4.52,4.29c-5.25,2.32-9.54,5.22-11.18,11.18
			c-0.33,1.21-2.06,2.49-3.39,2.88c-6.2,1.8-9.72,5.96-11.72,11.89c-0.46,1.35-1.73,2.72-2.99,3.47c-8.16,4.87-12.91,11.5-13,21.42
			c-0.06,7.34,1.58,14.06,6.31,19.48c9.4,10.76,19.41,20.99,28.92,31.65c12.51,14.01,20.89,29.39,20.34,49.29
			c-0.86,31.26-0.26,62.57-0.27,93.86c0,1.43,0.16,2.87,0.27,4.64c44.3,0,88.21,0,132.28,0c0-8.87,0-17.43,0-26.5
			c-2.24,0-4.2,0-6.16,0c-31.83,0-63.66-0.03-95.49,0.02c-3.31,0.01-5.66-0.04-5.64-4.59c0.03-4.32,1.91-4.79,5.47-4.77
			c23.5,0.12,47,0.07,70.49,0.07c2.1,0,4.2,0,6.21,0c0-9.26,0-17.79,0-26.87c-8.5,0-16.57,0-25.19,0c0-36.88,0-73.22,0-109.51
			c-12.38-0.6-10.2-0.96-13.6,6.39c-0.4,0.87-0.24,1.97-0.51,2.92c-3.18,11.16-6.41,22.31-9.59,33.47c-0.88,3.1-2.33,6.23-2.37,9.36
			c-0.23,17.31-0.11,34.62-0.13,51.92c0,1.76-0.15,3.53-0.24,5.43c-1.82,0.1-3.13,0.24-4.43,0.24
			C183.06,400.61,174.74,400.6,165.53,400.6z M40.33,23.23c-0.46,0.19-0.92,0.38-1.37,0.57c1.57,6.93,2.72,13.99,4.87,20.74
			c1.36,4.27,0.26,6.5-2.95,9.19c-5.84,4.9-11.79,9.99-11.07,18.91c0.09,1.15-0.74,2.53-1.49,3.56c-5.97,8.2-11.25,17.1-18.25,24.32
			c-9.77,10.06-12.73,20.78-7.51,33.65c0.91,2.25,2.43,4.71,4.39,5.98c3.17,2.05,6.86,3.38,10.44,4.69
			c7.54,2.74,17.12-0.2,20.05-6.26c4.84-10.01,14.38-13.74,23.84-15.23c8.15-1.29,16.04-1.98,22.91-7.2
			c0.78,0.91,1.38,1.48,1.82,2.15c0.83,1.24,1.68,2.49,2.34,3.83c6.69,13.49,5.28,27.12,0.35,40.67c-2.95,8.12-6.52,16.02-9.56,24.1
			c-6.97,18.51-9.43,37.34-3.43,56.66c0.6,1.92,1.09,3.86,1.42,5.04c5.04-4.6,9.89-8.79,14.41-13.32c1.27-1.28,2.31-3.59,2.18-5.33
			c-0.91-11.84,1.06-23.17,5.05-34.29c4.2-11.72,8.98-23.33,12.01-35.36c4.75-18.85,2.54-37.17-9.16-53.29
			c-3.93-5.41-6.62-10.66-6.96-17.4c-0.26-5.03-2.47-9.57-6.64-13.75c0,3.27,0.03,5.6-0.01,7.92
			c-0.28,17.52-12.93,30.53-30.78,27.42c-0.94-0.16-2.21-0.31-2.89,0.17c-8.74,6.1-19.88,8.93-25.62,19.2
			c-1.07,1.91-4.16,3.97-6.16,3.82c-3.4-0.26-8.82-1.47-9.57-3.61c-1.65-4.73-4.37-10.1-0.14-15.54
			c8.38-10.76,16.54-21.72,24.36-32.9c2.44-3.49,3.44-7.96,5.25-11.92c0.87-1.91,1.83-3.91,3.23-5.42c2.48-2.68,5.06-5.44,8.09-7.41
			c8.4-5.46,12.64-12.65,10.9-22.83c-0.03-0.19,0.34-0.46,1.08-1.39c2.74,2.89,5.23,5.94,8.16,8.46c2.25,1.92,4.91,4.1,7.66,4.57
			c16.73,2.83,31.35,10.06,44.2,20.81c16.59,13.88,27.14,32.06,36.23,51.36c7.78,16.51,15.09,33.4,28.23,46.74
			c8.81,8.94,19.26,14.96,31.22,18.74c0.38-8.44,0.87-16.38,0.97-24.32c0.02-1.16-1.6-2.55-2.75-3.48
			c-6.15-5.01-12.76-9.5-18.45-14.98c-3.76-3.62-6.71-8.32-9.17-12.98c-6.04-11.47-13.04-22.16-22.95-30.84
			c0.37-0.44,0.74-0.89,1.11-1.33c6.33,3.67,12.66,7.33,19.37,11.22c-9.73-22.64-26.59-37.28-49.32-45.82
			c0.27-0.51,0.54-1.02,0.81-1.52c6.33,1.29,12.66,2.58,20.26,4.13c-10.14-9.26-20.52-15.69-31.87-20.62
			c-13.15-5.72-26.97-8.41-41.24-8.93c-4.75-0.17-8.65-1.02-12.15-5.17c-5.56-6.6-13.16-10.84-21.45-14.82
			c0.39,6.26,0.74,11.81,1.17,18.6C49.98,29.44,45.15,26.34,40.33,23.23z M222.18,0c-46.59,0-92.66,0-138.65,0
			c0,8.42,0,16.46,0,25.16c37.67,2.61,75.02,0.33,112.77,1.49c0,2.95,0,5.43,0,7.91c-0.02,25.8-0.05,51.6-0.01,77.4
			c0,2.29-0.15,5.04,1,6.77c4.91,7.46,10.02,14.82,15.6,21.78c2.14,2.66,5.74,4.16,9.3,6.62C222.18,97.5,222.18,48.99,222.18,0z
			 M129.94,427.02c0-8.95,0-17.49,0-26.55c-6.95,0-13.52,0-20.32,0c-0.1-1.79-0.24-3.09-0.24-4.38
			c-0.03-21.61-0.53-43.24,0.16-64.83c0.3-9.54-1.73-16.78-9.21-23.12c-6.2-5.26-11.22-11.91-17.45-18.69c0,37.47,0,74.09,0,111.19
			c-8.64,0-16.72,0-25,0c0,9.04,0,17.58,0,26.38C81.92,427.02,105.67,427.02,129.94,427.02z M32.78,436.66c0,9.07,0,17.63,0,26.45
			c32.54,0,64.75,0,97.11,0c0-8.92,0-17.6,0-26.45C97.37,436.66,65.3,436.66,32.78,436.66z"/>
		<path class="st3" d="M165.53,400.6c9.21,0,17.53,0.01,25.85-0.01c1.31,0,2.61-0.14,4.43-0.24c0.09-1.9,0.24-3.66,0.24-5.43
			c0.02-17.31-0.11-34.62,0.13-51.92c0.04-3.13,1.49-6.25,2.37-9.36c3.18-11.16,6.41-22.31,9.59-33.47
			c0.27-0.95,0.11-2.05,0.51-2.92c3.4-7.35,1.22-6.99,13.6-6.39c0,36.3,0,72.63,0,109.51c8.62,0,16.69,0,25.19,0
			c0,9.07,0,17.61,0,26.87c-2.01,0-4.11,0-6.21,0c-23.5,0-47,0.05-70.49-0.07c-3.56-0.02-5.45,0.45-5.47,4.77
			c-0.03,4.55,2.33,4.6,5.64,4.59c31.83-0.05,63.66-0.03,95.49-0.02c1.96,0,3.92,0,6.16,0c0,9.07,0,17.63,0,26.5
			c-44.07,0-87.98,0-132.28,0c-0.11-1.77-0.27-3.2-0.27-4.64c0-31.29-0.59-62.59,0.27-93.86c0.55-19.9-7.83-35.28-20.34-49.29
			c-9.52-10.66-19.52-20.89-28.92-31.65c-4.73-5.41-6.38-12.14-6.31-19.48c0.09-9.91,4.83-16.55,13-21.42
			c1.26-0.75,2.53-2.12,2.99-3.47c2-5.92,5.52-10.08,11.72-11.89c1.34-0.39,3.06-1.68,3.39-2.88c1.64-5.95,5.93-8.86,11.18-11.18
			c1.82-0.8,3.78-2.51,4.52-4.29c2.91-6.91,8.31-11.08,16.08-11.25c3.25-0.07,5.42-0.92,7.44-3.75c5.05-7.08,13.1-8.9,21.34-5.99
			c1.96,0.69,4.82,0.44,6.71-0.5c9.93-4.88,17.67-3.57,25.18,4.44c1.05,1.12,3.06,1.86,4.64,1.9c14.19,0.37,22.21,12.2,16.55,25.19
			c-1.63,3.74,0.66,5.06,2.45,7.12c7.74,8.9,16.11,17.35,23,26.86c8.97,12.4,0.2,30.94-15.03,32.55c-3.78,0.4-7.74-1.52-11.67-1.91
			c-7.39-0.72-14.82-1.13-22.23-1.56c-0.65-0.04-1.92,0.69-1.95,1.12c-0.41,6.48-6.86,10.92-5.68,18.16
			c0.48,2.91-0.88,6.78-2.71,9.24c-2.45,3.29-3.31,6.33-3.13,10.37c0.33,7.36-3.14,12.83-10.16,15.53
			c-2.68,1.03-3.75,2.52-4.17,5.39c-0.89,6.02-4.1,10.74-9.25,14.2c-1.39,0.94-3.23,2.61-3.26,3.97
			C165.44,373.33,165.53,386.6,165.53,400.6z M175.23,223.01c-1.36,4.6-4.63,6.3-8.32,7.67c-7.51,2.8-12.59,8.05-16.09,15.86
			c7.14,1.36,13.5,0.51,18.9-2.74c5.19-3.13,9.52-7.67,14.53-11.83c0,1.65,0.36,2.95-0.06,3.91c-1.86,4.28-0.11,6.95,2.65,10.42
			c2.68,3.37,4,8.25,4.64,12.66c0.49,3.32,0.48,6.07,4,7.62c1.3,0.58,2.47,1.77,3.34,2.94c2.54,3.44,5.91,4.5,10.03,4.31
			c8.52-0.4,16.95,0.07,25.08,3.13c1.82,0.69,3.9,1.03,5.84,0.99c5.33-0.12,9.04-3.49,9.74-8.48c-2.68-2.49-8.24-2.4-7.7-8.85
			c3.19,1.43,5.79,2.6,8.39,3.78c0.4-0.26,0.79-0.52,1.19-0.78c-0.96-2.27-1.46-4.92-2.96-6.73c-6.27-7.53-12.78-14.87-19.32-22.17
			c-3.95-4.41-7.66-9.41-14.85-7.98c-0.9,0.18-2.09-0.14-2.89-0.63c-3.65-2.25-6.51-1.52-10.28,0.68
			c-8.01,4.66-18.5-0.92-17.02-7.54c3.91,0.84,8.18,3.06,11.56,2.11c3.51-0.99,6.15-5.05,9.35-7.93c1.14,0.98,2.75,2.73,4.69,3.96
			c3.15,2,6.62,3.64,10.19,0.99c3.36-2.5,3.99-6.21,2.84-9.9c-1.24-4-4.28-6.41-8.65-6.2c-2.76,0.13-5.5,0.87-8.33,1.35
			c-7.77-13.9-13.56-14.7-24.55-2.95c-4.39-3.72-8.74-8.01-15.34-5.45c-6.46,2.5-7.24,8.33-7.76,15.1
			c-5.02-5.08-10.13-7.09-15.63-2.9c-5.3,4.04-3.99,9.88-2.56,16.11c-5.16-3.03-9.64-4.28-13.82-0.69
			c-4.31,3.71-2.81,8.67-1.72,13.97c-5.12-2.18-10.43-3.39-13.33,1.01c-2.24,3.4-2.08,8.38-3.04,12.91
			c-3.82-1.2-8.44-1.08-11.67,3.68c-3.37,4.97-2.02,9.97,0.54,14.61c1.83,3.31,4.13,6.49,6.76,9.21
			c4.98,5.13,10.21,10.04,15.57,14.77c17.39,15.33,32.78,31.84,35.67,56.36c0.11,0.94,2.5,2.38,3.74,2.29
			c7.48-0.54,16.1-10.65,9.16-19.19c-1.15-1.41-1.59-3.39-2.63-5.69c3.47,1.29,5.99,2.54,8.66,3.15c4.67,1.07,8.67-1.61,10.27-6.52
			c1.47-4.51-0.58-6.57-4.8-8.05c-2.41-0.84-4.26-3.29-6.36-5.02c6.47,0.56,12.52,1.8,16.66-4.27c3.43-5.05-0.57-8.62-3.64-12.69
			c5.87-2.93,11.04-6.37,9.49-13.65c-1.59-7.5-7.67-9.25-14.69-9.78c0.91-1.88,1.69-3.31,2.32-4.8c2.2-5.16,1.06-10.37-2.58-14.29
			c-3.92-4.23-6.84-0.4-10.17,0.84c-10.02,3.72-19.9,3.67-29.77-0.63C146.16,233.69,160.27,222.28,175.23,223.01z"/>
		<path class="st4" d="M40.33,23.23c4.82,3.1,9.65,6.21,15.48,9.96c-0.43-6.79-0.77-12.33-1.17-18.6
			c8.29,3.98,15.89,8.22,21.45,14.82c3.49,4.15,7.4,4.99,12.15,5.17c14.27,0.52,28.09,3.21,41.24,8.93
			c11.35,4.94,21.73,11.36,31.87,20.62c-7.6-1.55-13.93-2.84-20.26-4.13c-0.27,0.51-0.54,1.02-0.81,1.52
			c22.73,8.54,39.59,23.18,49.32,45.82c-6.71-3.89-13.04-7.55-19.37-11.22c-0.37,0.44-0.74,0.89-1.11,1.33
			c9.9,8.68,16.91,19.37,22.95,30.84c2.46,4.67,5.41,9.37,9.17,12.98c5.69,5.47,12.3,9.97,18.45,14.98
			c1.15,0.93,2.77,2.32,2.75,3.48c-0.1,7.94-0.59,15.87-0.97,24.32c-11.96-3.78-22.42-9.8-31.22-18.74
			c-13.15-13.34-20.45-30.23-28.23-46.74c-9.09-19.3-19.64-37.48-36.23-51.36c-12.85-10.75-27.47-17.98-44.2-20.81
			c-2.75-0.46-5.42-2.65-7.66-4.57c-2.94-2.52-5.42-5.57-8.16-8.46c-0.74,0.93-1.12,1.19-1.08,1.39c1.75,10.18-2.5,17.36-10.9,22.83
			c-3.03,1.97-5.6,4.73-8.09,7.41c-1.4,1.51-2.36,3.51-3.23,5.42c-1.81,3.95-2.81,8.43-5.25,11.92
			c-7.82,11.18-15.97,22.13-24.36,32.9c-4.23,5.43-1.52,10.81,0.14,15.54c0.75,2.14,6.17,3.35,9.57,3.61
			c1.99,0.15,5.09-1.9,6.16-3.82c5.74-10.28,16.88-13.1,25.62-19.2c0.68-0.47,1.95-0.33,2.89-0.17c17.85,3.11,30.5-9.9,30.78-27.42
			c0.04-2.32,0.01-4.65,0.01-7.92c4.17,4.17,6.38,8.72,6.64,13.75c0.34,6.74,3.03,11.99,6.96,17.4
			c11.69,16.11,13.9,34.44,9.16,53.29c-3.03,12.03-7.81,23.64-12.01,35.36c-3.99,11.12-5.96,22.44-5.05,34.29
			c0.13,1.74-0.9,4.06-2.18,5.33C87,239.81,82.15,244,77.11,248.6c-0.33-1.18-0.82-3.12-1.42-5.04c-6-19.32-3.54-38.15,3.43-56.66
			c3.05-8.09,6.61-15.98,9.56-24.1c4.93-13.55,6.35-27.18-0.35-40.67c-0.66-1.33-1.51-2.59-2.34-3.83
			c-0.45-0.67-1.04-1.24-1.82-2.15c-6.86,5.22-14.75,5.91-22.91,7.2c-9.46,1.5-19,5.23-23.84,15.23c-2.93,6.06-12.51,9-20.05,6.26
			c-3.59-1.3-7.28-2.64-10.44-4.69c-1.95-1.27-3.47-3.73-4.39-5.98c-5.22-12.87-2.26-23.59,7.51-33.65
			c7.01-7.22,12.28-16.12,18.25-24.32c0.75-1.03,1.58-2.41,1.49-3.56c-0.72-8.93,5.24-14.02,11.07-18.91
			c3.21-2.7,4.31-4.92,2.95-9.19c-2.15-6.75-3.3-13.81-4.87-20.74C39.41,23.62,39.87,23.42,40.33,23.23z"/>
		<path class="st4" d="M222.18,0c0,48.99,0,97.5,0,147.14c-3.56-2.46-7.16-3.96-9.3-6.62c-5.58-6.96-10.69-14.33-15.6-21.78
			c-1.14-1.74-0.99-4.49-1-6.77c-0.05-25.8-0.01-51.6,0.01-77.4c0-2.48,0-4.96,0-7.91c-37.75-1.16-75.1,1.13-112.77-1.49
			c0-8.7,0-16.74,0-25.16C129.52,0,175.59,0,222.18,0z"/>
		<path class="st4" d="M129.94,427.02c-24.26,0-48.02,0-72.07,0c0-8.8,0-17.34,0-26.38c8.28,0,16.36,0,25,0
			c0-37.11,0-73.72,0-111.19c6.23,6.78,11.25,13.43,17.45,18.69c7.48,6.34,9.51,13.58,9.21,23.12c-0.69,21.59-0.19,43.22-0.16,64.83
			c0,1.29,0.14,2.59,0.24,4.38c6.79,0,13.37,0,20.32,0C129.94,409.52,129.94,418.07,129.94,427.02z"/>
		<path class="st4" d="M32.78,436.66c32.52,0,64.59,0,97.11,0c0,8.85,0,17.53,0,26.45c-32.37,0-64.58,0-97.11,0
			C32.78,454.29,32.78,445.73,32.78,436.66z"/>
		<path class="st5" d="M149.03,253.7c-0.91-0.18-1.83-0.38-2.74-0.62c-1.2-0.1-2.4-0.21-3.6-0.31c0.18,0.49,0.37,0.98,0.54,1.48
			C145.16,254.07,147.09,253.89,149.03,253.7z"/>
		<path class="st5" d="M150.25,325.74c-0.35,0.24-0.7,0.48-1.05,0.72c-0.23,0.47-0.48,0.92-0.75,1.35c0.17,0.34,0.34,0.68,0.5,1.03
			C149.27,327.77,149.7,326.73,150.25,325.74z"/>
		<path class="st3" d="M126.25,255.29c-5.41,7.46-5.83,12.84-1.69,18.04c3.8,4.76,9.63,5.51,17.7,2.28
			c-1.42,5.93-7.39,9.3-13.91,7.85c-9.01-2.01-14.19-9.83-12.56-18.94C117.02,257.66,120.55,254.39,126.25,255.29z"/>
		<path class="st3" d="M145.25,291.88c9.59,12.06,11.15,12.31,24.91,4.12c0.35,5.18-1.92,8.62-6.13,10.91
			c-4.56,2.48-12.17,1.57-15.92-1.77C144.26,301.71,143.18,297.09,145.25,291.88z"/>
		<path class="st3" d="M165.84,268.38c-1.62,11.07,0.92,14.32,13.15,17.16c-3.04,3.15-6.45,3.94-10.38,2.76
			c-4.81-1.45-7.43-4.92-8.08-9.7C159.97,274.41,161.19,270.78,165.84,268.38z"/>
		<path class="st3" d="M217.49,243.98c-3.95-0.3-7.85-0.14-11.5-1.03c-2.41-0.59-4.45-2.68-6.66-4.1c1.94-1.45,3.7-3.69,5.86-4.18
			C210.83,233.38,216.16,237.91,217.49,243.98z"/>
	</g>
</g>
<g id="Layer_2">
</g>
</svg>
