<?xml version="1.0" encoding="utf-8"?>
<!-- Generator: Adobe Illustrator 28.2.0, SVG Export Plug-In . SVG Version: 6.00 Build 0)  -->
<svg version="1.1" id="Layer_1" xmlns="http://www.w3.org/2000/svg" xmlns:xlink="http://www.w3.org/1999/xlink" x="0px" y="0px"
	 viewBox="0 0 614.43 717.98" style="enable-background:new 0 0 614.43 717.98;" xml:space="preserve">
<style type="text/css">
	.st0{clip-path:url(#SVGID_00000023258879442818740660000009317628541378417846_);}
	.st1{fill:#118D95;}
	.st2{fill:#108B93;}
	.st3{fill:#0B325D;}
</style>
<g>
	<defs>
		<rect id="SVGID_1_" x="-653.75" y="-237.29" width="1920" height="1080"/>
	</defs>
	<clipPath id="SVGID_00000020358531693907578420000017601119234370833067_">
		<use xlink:href="#SVGID_1_"  style="overflow:visible;"/>
	</clipPath>
	<g style="clip-path:url(#SVGID_00000020358531693907578420000017601119234370833067_);">
		<path class="st1" d="M199.02,621.52h-38.75v40.83h111.61v-41.08h-31.31V471.58c0.68-0.37,1.37-0.73,2.05-1.1
			c10.83,14.58,22.07,28.88,32.37,43.82c8.67,12.58,12.54,26.91,12.49,42.36c-0.15,51.11-0.08,102.22-0.07,153.33
			c0,2.48,0.21,4.97,0.34,7.98H492.8v-40.97c-3.26,0-6.04,0-8.82,0c-29.96,0-59.93,0-89.89-0.01c-20.15-0.01-40.3-0.18-60.44,0.01
			c-4.95,0.05-6.72-1.46-6.88-6.55c-0.19-5.92,1.42-8.06,7.75-8.01c37.19,0.29,74.39,0.15,111.58,0.16c2.71,0,5.42,0,8.02,0v-41.37
			h-38.96V425.92c-11.01,0-21.04-0.05-31.07,0.02c-9.53,0.07-9.87,0.46-9.87,10.22c0.01,58.6,0.03,117.19,0.05,175.79
			c0,2.96,0,5.92,0,8.7h-47.43c0-18.42-0.37-36.19,0.22-53.94c0.18-5.59,1.82-11.75,4.68-16.53c11.25-18.81,20.49-38.35,22.17-60.42
			c0.93-12.27,0.11-24.72-0.43-37.06c-0.99-22.86,9.41-40.98,27.03-45.29c6.21-1.52,12.76-2.03,19.18-2.25
			c40.1-1.34,51.33-26.08,57.17-52.19c1.33-5.96-0.68-9.49-7.1-11.26c-12.91-3.57-25.78-7.45-38.28-12.21
			c-4.61-1.76-9.49-5.56-11.93-9.77c-7.19-12.42-17.26-20.85-31.08-23.55c-11.53-2.25-23.45-3.71-35.16-3.49
			c-19.86,0.38-35.83,9.58-46.59,26.31c-6.67,10.37-11.86,21.68-17.89,32.48c-7.41,13.26-14,27.12-22.72,39.47
			c-18.91,26.75-46.6,36.09-78.22,36.14c-39.78,0.06-79.56,0.07-119.33,0.05c-2.74,0-5.49-0.45-8.77-0.74c0-3.29,0-5.84,0-8.39
			c0.03-39.24,0.26-78.47-0.09-117.71c-0.07-7.58,2.23-9.58,9.61-9.52c37.45,0.3,74.91,0.08,112.36,0.06
			c14.03-0.01,14.06,0.02,19.27-12.62c3.57-8.66,7.04-17.37,10.97-27.09c-3.74,0-5.78,0-7.81,0c-58.38,0-116.75,0.16-175.13-0.18
			c-7.6-0.04-8.88,2.63-8.86,9.35C0.26,326.64,0.23,392.98,0,459.32c-0.02,6.11,1.73,7.84,7.87,7.81
			c52.43-0.26,104.87-0.41,157.3-0.13c30.61,0.16,55.43-11.83,76.19-33.62c13.53-14.2,23.01-31,31.77-48.32
			c1.18-2.35,2.67-4.54,4.4-7.46c2.66,2.83,4.16,5.01,6.18,6.49c7.63,5.6,14.87,12.14,23.29,16.17c11.71,5.6,23.2,0.29,27.55-11.89
			c7.42-20.77,2.25-41.06-3.14-61.23c-0.7,5.19,0.01,10.47-0.84,15.49c-2.02,11.86-3.87,23.9-7.54,35.3
			c-2.77,8.62-8.17,9.72-15.79,4.82c-4.72-3.04-9.15-6.76-13.02-10.83c-9.06-9.53-9.8-14.86-3.59-26.36
			c3.79-7.01,7.39-14.6,12.91-20.08c6.37-6.34,14.1-12.54,22.41-15.46c17.55-6.16,34.71-1.73,50.46,7.31
			c3.79,2.18,7.68,6.05,9.16,10.03c3.8,10.17,11.3,14.82,20.99,17.46c5.72,1.56,11.34,3.46,16.99,5.26
			c12.33,3.92,16.51,15.42,7.97,24.83c-4.78,5.27-11.47,9.97-18.19,12.06c-8.44,2.63-17.78,2.77-26.77,3.19
			c-24.88,1.14-42.19,14.02-48.05,38.28c-2.56,10.61-3.67,22.06-2.78,32.9c2.35,28.52-5.05,54.09-20.01,77.95
			c-1.28,2.04-2.63,4.03-3.95,6.05c-3.64-43.31-36.33-69.31-56.67-101.77c-8.65,6.83-16.23,13.9-24.85,19.33
			c-8.86,5.58-18.88,9.31-28.04,14.47c-1.87,1.06-3.05,4.9-3.06,7.46c-0.18,42.08-0.13,84.15-0.13,126.23
			C199.02,614.11,199.02,617.15,199.02,621.52 M200.06,408.16c7.73-4.61,14.7-8.92,21.83-12.97c4.59-2.61,4.69-5.63,2.53-10.13
			c-10.79-22.45-11.92-45.82-4.58-69.34c5.37-17.2,12.44-33.87,18.1-50.99c12.88-38.97,10.58-75.71-16.96-108.54
			c-1.73-2.06-2.23-5.53-2.46-8.41c-0.85-10.82-3.03-21-11.58-30c0,4.28-0.02,7.3,0,10.33c0.26,27.53-19.37,49.94-48.23,44.34
			c-1.43-0.28-3.39-0.35-4.47,0.4c-13.57,9.45-30.68,14.15-39.56,30.04c-1.56,2.8-6.11,5.81-9.01,5.57
			c-5.32-0.45-13.87-2.1-14.95-5.3c-2.47-7.35-7.12-15.62-0.61-24.09c13.69-17.8,26.88-35.98,40.13-54.1
			c2.25-3.07,5.57-6.78,5.34-9.97c-0.67-9.33,5.31-14.03,11-19.2c6.49-5.91,13.34-11.45,19.57-17.61c2.11-2.08,3.66-5.47,3.99-8.43
			c0.62-5.62,0.18-11.36,0.18-17.05c1.09-0.49,2.17-0.98,3.26-1.47c3.62,4.35,7.67,8.42,10.73,13.14c3.43,5.28,8.01,7.12,13.96,8.12
			c19.34,3.24,37.08,10.65,53.43,21.53c30.73,20.45,50.4,49.72,66.18,82.18c7.67,15.76,15.19,31.62,23.55,47.02
			c24.38,44.92,61.27,68.86,113.55,67.83c36.66-0.72,73.36,0.07,110.03-0.29c7.51-0.07,9.62,2.13,9.56,9.59
			c-0.32,39.49-0.27,78.99,0.05,118.48c0.05,6.48-1.77,8.38-8.23,8.33c-38.48-0.29-76.97-0.19-115.46-0.22
			c-5.17,0-10.36-0.28-15.48,0.2c-1.8,0.17-4.88,2.16-4.92,3.39c-0.37,12.01-0.22,24.03-0.22,36.09h183.29
			c0.22-1.56,0.55-2.79,0.55-4.01c0.06-67.89,0.02-135.78,0.26-203.67c0.03-6.89-2.88-7.95-8.82-7.93
			c-50.89,0.18-101.77,0.1-152.66,0.13c-34.21,0.02-61.02-14.07-79.21-42.99c-12.55-19.95-22.58-41.58-41.44-57.05
			c0.54-0.68,1.07-1.37,1.61-2.05c9.86,5.6,19.72,11.19,30.08,17.07c-14.84-34.73-40.8-57.26-75.72-70.55
			c0.46-0.78,0.91-1.55,1.37-2.33c9.82,2.03,19.64,4.05,29.46,6.07c-5.92-5.96-12.2-11.3-18.96-15.94
			c-29.4-20.21-62.36-29.2-97.73-30.13c-5.29-0.14-8.96-1.94-12.49-6.06c-9.27-10.81-21.42-17.74-34.85-24.88
			c0.65,10.18,1.21,18.75,1.88,29.14c-9.18-5.83-16.77-10.66-24.37-15.48c0.72,11.78,2.57,22.7,5.66,33.27
			c1.79,6.12,0.78,9.66-4.14,13.8c-9.21,7.76-18.79,15.7-17.53,29.96c0.19,2.14-1.74,4.72-3.21,6.72
			c-9.31,12.7-18.69,25.34-28.17,37.91c-17.49,23.16-17.64,23.17-10.53,51.47c0.77,3.06,3.34,6.47,6.05,8.08
			c5.27,3.14,11.11,5.49,16.94,7.5c13.17,4.55,25.55-0.22,32.06-11.99c7.63-13.78,21.59-19.16,35.12-21.43
			c12.77-2.14,25.39-2.86,36.47-11.43c2.01,3.1,3.69,5.35,5.01,7.79c11.12,20.61,9.56,41.83,2.17,62.96
			c-5.61,16.05-12.58,31.62-18.27,47.65C176.91,335.65,181.35,371.73,200.06,408.16 M412.51,228.37c0.72-0.68,1.44-1.36,2.16-2.04V0
			H199.75v38.95c58.26,4.05,116.12,0.56,174.22,2.3c0.18,2.95,0.44,5.22,0.44,7.48c0.05,36.89,1.17,73.83-0.36,110.66
			c-0.78,18.73,4.6,33.94,16.04,47.46C396.74,214.71,404.98,221.24,412.51,228.37 M121.17,717.93h150.67v-40.42H121.17V717.93z"/>
		<path class="st2" d="M199.02,621.52c0-4.37,0-7.41,0-10.46c0-42.08-0.06-84.15,0.13-126.23c0.01-2.56,1.19-6.4,3.06-7.46
			c9.16-5.16,19.18-8.89,28.04-14.47c8.62-5.43,16.21-12.5,24.85-19.33c20.34,32.45,53.03,58.45,56.67,101.76
			c1.32-2.01,2.67-4.01,3.95-6.05c14.96-23.85,22.36-49.42,20.01-77.95c-0.89-10.85,0.22-22.3,2.78-32.9
			c5.86-24.26,23.17-37.14,48.05-38.28c8.99-0.41,18.33-0.56,26.77-3.19c6.72-2.09,13.4-6.79,18.19-12.06
			c8.54-9.42,4.36-20.91-7.97-24.83c-5.65-1.8-11.27-3.7-16.99-5.26c-9.7-2.64-17.19-7.29-20.99-17.46
			c-1.48-3.98-5.37-7.85-9.16-10.03c-15.75-9.04-32.91-13.47-50.46-7.31c-8.31,2.92-16.04,9.12-22.41,15.46
			c-5.52,5.49-9.12,13.07-12.91,20.08c-6.21,11.49-5.47,16.83,3.59,26.36c3.87,4.07,8.3,7.79,13.02,10.83
			c7.62,4.9,13.01,3.8,15.79-4.82c3.67-11.4,5.52-23.43,7.54-35.29c0.85-5.02,0.14-10.3,0.84-15.49
			c5.39,20.17,10.56,40.46,3.14,61.23c-4.35,12.18-15.84,17.48-27.55,11.89c-8.42-4.02-15.66-10.56-23.29-16.17
			c-2.02-1.48-3.52-3.65-6.18-6.49c-1.73,2.92-3.22,5.11-4.4,7.46c-8.75,17.32-18.24,34.11-31.77,48.32
			c-20.76,21.79-45.58,33.79-76.19,33.62c-52.43-0.28-104.87-0.13-157.3,0.13c-6.14,0.03-7.89-1.7-7.87-7.81
			c0.23-66.34,0.26-132.68,0.09-199.02c-0.02-6.72,1.26-9.39,8.86-9.35c58.37,0.34,116.75,0.18,175.13,0.18c2.03,0,4.07,0,7.81,0
			c-3.93,9.71-7.39,18.42-10.97,27.08c-5.22,12.65-5.25,12.62-19.27,12.63c-37.45,0.02-74.91,0.24-112.36-0.06
			c-7.38-0.06-9.67,1.94-9.61,9.52c0.35,39.23,0.12,78.47,0.09,117.71c0,2.55,0,5.1,0,8.39c3.28,0.29,6.02,0.74,8.76,0.74
			c39.78,0.02,79.56,0.01,119.33-0.05c31.61-0.05,59.31-9.38,78.22-36.14c8.73-12.34,15.31-26.21,22.72-39.47
			c6.03-10.79,11.22-22.11,17.89-32.48c10.76-16.73,26.73-25.92,46.59-26.3c11.71-0.22,23.64,1.24,35.16,3.49
			c13.82,2.7,23.89,11.13,31.08,23.55c2.44,4.21,7.31,8.02,11.93,9.77c12.51,4.76,25.38,8.64,38.28,12.21
			c6.42,1.77,8.43,5.3,7.1,11.26c-5.84,26.11-17.07,50.85-57.17,52.19c-6.42,0.21-12.97,0.73-19.18,2.25
			c-17.63,4.31-28.03,22.42-27.03,45.29c0.54,12.35,1.36,24.79,0.42,37.06c-1.68,22.07-10.92,41.61-22.17,60.42
			c-2.86,4.77-4.5,10.94-4.68,16.53c-0.58,17.74-0.22,35.52-0.22,53.94h47.43c0-2.79,0-5.74,0-8.7
			c-0.02-58.6-0.04-117.2-0.05-175.79c0-9.76,0.34-10.15,9.87-10.22c10.03-0.07,20.07-0.02,31.07-0.02v195.32h38.96v41.37
			c-2.6,0-5.31,0-8.02,0c-37.19-0.01-74.39,0.13-111.58-0.16c-6.32-0.05-7.93,2.09-7.74,8.01c0.16,5.09,1.93,6.6,6.88,6.55
			c20.15-0.19,40.29-0.02,60.44-0.01c29.96,0.02,59.93,0.01,89.89,0.01c2.78,0,5.56,0,8.82,0v40.97H287.76
			c-0.13-3.01-0.34-5.5-0.34-7.98c-0.01-51.11-0.08-102.22,0.07-153.33c0.04-15.45-3.82-29.78-12.49-42.36
			c-10.3-14.94-21.54-29.24-32.37-43.82c-0.68,0.37-1.37,0.73-2.05,1.1v149.68h31.31v41.08H160.27v-40.83H199.02z"/>
		<g>
			<path class="st3" d="M200.06,408.16c-18.71-36.43-23.15-72.52-9.83-109.95c5.7-16.02,12.66-31.6,18.27-47.65
				c7.39-21.13,8.95-42.35-2.17-62.96c-1.32-2.44-3-4.69-5.01-7.79c-11.08,8.58-23.7,9.29-36.47,11.44
				c-13.53,2.27-27.49,7.65-35.12,21.43c-6.51,11.76-18.89,16.53-32.06,11.98c-5.83-2.01-11.67-4.36-16.95-7.5
				c-2.71-1.61-5.28-5.01-6.05-8.08c-7.11-28.31-6.96-28.31,10.53-51.47c9.48-12.57,18.87-25.21,28.17-37.91
				c1.47-2,3.4-4.58,3.21-6.72c-1.26-14.26,8.32-22.2,17.53-29.96c4.92-4.14,5.93-7.68,4.14-13.8c-3.09-10.56-4.95-21.48-5.66-33.26
				c7.59,4.83,15.19,9.65,24.37,15.48c-0.67-10.39-1.22-18.96-1.88-29.14c13.42,7.14,25.58,14.06,34.85,24.88
				c3.53,4.12,7.2,5.92,12.49,6.06c35.36,0.94,68.32,9.92,97.73,30.13c6.76,4.64,13.04,9.98,18.96,15.94
				c-9.82-2.02-19.64-4.05-29.46-6.07c-0.46,0.78-0.91,1.55-1.37,2.33c34.92,13.29,60.88,35.82,75.72,70.55
				c-10.36-5.88-20.22-11.48-30.08-17.07c-0.54,0.68-1.07,1.37-1.61,2.05c18.86,15.47,28.9,37.1,41.44,57.05
				c18.19,28.92,44.99,43.01,79.21,42.99c50.89-0.03,101.77,0.05,152.66-0.13c5.94-0.02,8.85,1.04,8.82,7.93
				c-0.25,67.89-0.2,135.78-0.26,203.67c0,1.23-0.33,2.45-0.55,4.01H430.32c0-12.07-0.15-24.09,0.22-36.09
				c0.04-1.23,3.11-3.22,4.92-3.39c5.12-0.47,10.32-0.2,15.48-0.2c38.49,0.03,76.97-0.07,115.46,0.22c6.46,0.05,8.28-1.85,8.23-8.33
				c-0.32-39.49-0.37-78.99-0.05-118.48c0.06-7.46-2.05-9.66-9.56-9.59c-36.67,0.36-73.37-0.43-110.03,0.29
				c-52.27,1.03-89.16-22.91-113.55-67.83c-8.36-15.4-15.88-31.26-23.55-47.02c-15.79-32.46-35.46-61.73-66.18-82.18
				c-16.35-10.88-34.09-18.29-53.43-21.53c-5.95-1-10.53-2.84-13.96-8.12c-3.06-4.71-7.12-8.78-10.73-13.14
				c-1.09,0.49-2.17,0.98-3.26,1.47c0,5.69,0.44,11.43-0.18,17.05c-0.33,2.96-1.89,6.35-3.99,8.43
				c-6.24,6.16-13.08,11.7-19.57,17.61c-5.68,5.17-11.67,9.88-11,19.21c0.23,3.19-3.09,6.9-5.34,9.97
				c-13.26,18.12-26.45,36.3-40.13,54.1c-6.51,8.47-1.86,16.74,0.61,24.09c1.08,3.21,9.63,4.85,14.95,5.3
				c2.9,0.24,7.44-2.77,9.01-5.57c8.88-15.88,25.99-20.59,39.56-30.04c1.08-0.75,3.03-0.68,4.47-0.4
				c28.86,5.6,48.49-16.81,48.23-44.34c-0.03-3.03,0-6.06,0-10.33c8.55,9,10.73,19.18,11.58,30c0.23,2.88,0.73,6.35,2.46,8.41
				c27.54,32.82,29.83,69.56,16.96,108.54c-5.66,17.12-12.73,33.79-18.1,50.99c-7.34,23.52-6.21,46.89,4.58,69.34
				c2.16,4.5,2.06,7.52-2.53,10.13C214.76,399.24,207.79,403.55,200.06,408.16"/>
		</g>
		<path class="st3" d="M412.51,228.37c-7.53-7.13-15.77-13.66-22.42-21.53c-11.44-13.52-16.82-28.72-16.04-47.46
			c1.54-36.83,0.41-73.77,0.36-110.66c0-2.26-0.26-4.53-0.44-7.48c-58.1-1.74-115.95,1.75-174.22-2.3V0h214.92v226.33
			C413.94,227.01,413.23,227.69,412.51,228.37"/>
		<rect x="121.17" y="677.52" class="st1" width="150.67" height="40.42"/>
	</g>
</g>
</svg>
