<?xml version="1.0" encoding="utf-8"?>
<!-- Generator: Adobe Illustrator 28.2.0, SVG Export Plug-In . SVG Version: 6.00 Build 0)  -->
<svg version="1.1" xmlns="http://www.w3.org/2000/svg" xmlns:xlink="http://www.w3.org/1999/xlink" x="0px" y="0px"
	 viewBox="0 0 272.6 463.1" style="enable-background:new 0 0 272.6 463.1;" xml:space="preserve">
<style type="text/css">
	.st0{display:none;}
	.st1{display:inline;fill:#FF0000;}
	.st2{display:none;fill:#FFFFFF;}
	.st3{fill:#168A91;}
	.st4{fill:#0E335F;}
	.st5{display:none;fill:#0E335F;}
</style>
<g id="Layer_2" class="st0">
	<path class="st1" d="M457.5,120c-7.7-18.3-15.4-36.5-23.1-54.8C414,30.7,386.5,3.3,352-17.1c-18.3-7.7-36.5-15.4-54.8-23.1
		c-40.7-10.9-81.3-10.9-122,0c-28.1,7.1-54.7,17.6-81,29.6C81.1-9.6,68.1-7,55.1-2.9C25.2,4.2-0.8,17.9-23,38.2
		c-25,16.2-44.7,37.6-59.1,64.4c-7.7,18.3-15.4,36.5-23.1,54.8c-10.9,40.7-10.9,81.3,0,122c7.7,18.3,15.4,36.5,23.1,54.8
		c20.4,34.5,47.8,61.9,82.3,82.3c20.3,10.6,41.3,21.8,63.8,26.1c11.9,2.3,48.3,10.3,70.6,8.2c6.9-0.7,50.2-3.4,70.8-10.7
		c21.6-7.7,42.8-17,63.5-26.8c5.1-2.4,10.2-5,15.2-7.5c4.3-1.2,8.7-2.3,13-3.4c29.9-7.1,55.9-20.8,78-41.1
		c25-16.2,44.7-37.6,59.1-64.4c16.8-26.3,25.8-54.8,27.2-85.3C468.4,181,467.1,150.5,457.5,120z"/>
</g>
<g id="Layer_1">
	<g>
		<path class="st2" d="M40.3,23.2c-0.5,0.2-0.9,0.4-1.4,0.6c1.6,6.9,2.7,14,4.9,20.7c1.4,4.3,0.3,6.5-3,9.2
			c-5.8,4.9-11.8,10-11.1,18.9c0.1,1.2-0.7,2.5-1.5,3.6c-6,8.2-11.2,17.1-18.2,24.3c-9.8,10.1-12.7,20.8-7.5,33.7
			c0.9,2.2,2.4,4.7,4.4,6c3.2,2.1,6.9,3.4,10.4,4.7c7.5,2.7,17.1-0.2,20.1-6.3c4.8-10,14.4-13.7,23.8-15.2c8.1-1.3,16-2,22.9-7.2
			c0.8,0.9,1.4,1.5,1.8,2.2c0.8,1.2,1.7,2.5,2.3,3.8c6.7,13.5,5.3,27.1,0.3,40.7c-2.9,8.1-6.5,16-9.6,24.1
			c-7,18.5-9.4,37.3-3.4,56.7c0.6,1.9,1.1,3.9,1.4,5c5-4.6,9.9-8.8,14.4-13.3c1.3-1.3,2.3-3.6,2.2-5.3c-0.9-11.8,1.1-23.2,5.1-34.3
			c4.2-11.7,9-23.3,12-35.4c4.8-18.9,2.5-37.2-9.2-53.3c-3.9-5.4-6.6-10.7-7-17.4c-0.3-5-2.5-9.6-6.6-13.8c0,3.3,0,5.6,0,7.9
			c-0.3,17.5-12.9,30.5-30.8,27.4c-0.9-0.2-2.2-0.3-2.9,0.2c-8.7,6.1-19.9,8.9-25.6,19.2c-1.1,1.9-4.2,4-6.2,3.8
			c-3.4-0.3-8.8-1.5-9.6-3.6c-1.6-4.7-4.4-10.1-0.1-15.5c8.4-10.8,16.5-21.7,24.4-32.9c2.4-3.5,3.4-8,5.2-11.9
			c0.9-1.9,1.8-3.9,3.2-5.4c2.5-2.7,5.1-5.4,8.1-7.4c8.4-5.5,12.6-12.6,10.9-22.8c0-0.2,0.3-0.5,1.1-1.4c2.7,2.9,5.2,5.9,8.2,8.5
			c2.2,1.9,4.9,4.1,7.7,4.6c16.7,2.8,31.3,10.1,44.2,20.8c16.6,13.9,27.1,32.1,36.2,51.4c7.8,16.5,15.1,33.4,28.2,46.7
			c8.8,8.9,19.3,15,31.2,18.7c0.4-8.4,0.9-16.4,1-24.3c0-1.2-1.6-2.6-2.8-3.5c-6.1-5-12.8-9.5-18.4-15c-3.8-3.6-6.7-8.3-9.2-13
			c-6-11.5-13-22.2-22.9-30.8c0.4-0.4,0.7-0.9,1.1-1.3c6.3,3.7,12.7,7.3,19.4,11.2c-9.7-22.6-26.6-37.3-49.3-45.8
			c0.3-0.5,0.5-1,0.8-1.5c6.3,1.3,12.7,2.6,20.3,4.1c-10.1-9.3-20.5-15.7-31.9-20.6c-13.2-5.7-27-8.4-41.2-8.9
			c-4.8-0.2-8.7-1-12.2-5.2c-5.6-6.6-13.2-10.8-21.5-14.8c0.4,6.3,0.7,11.8,1.2,18.6C50,29.4,45.2,26.3,40.3,23.2z M222.2,0
			c-46.6,0-92.7,0-138.6,0c0,8.4,0,16.5,0,25.2c37.7,2.6,75,0.3,112.8,1.5c0,3,0,5.4,0,7.9c0,25.8-0.1,51.6,0,77.4
			c0,2.3-0.1,5,1,6.8c4.9,7.5,10,14.8,15.6,21.8c2.1,2.7,5.7,4.2,9.3,6.6C222.2,97.5,222.2,49,222.2,0z M129.9,427
			c0-9,0-17.5,0-26.5c-6.9,0-13.5,0-20.3,0c-0.1-1.8-0.2-3.1-0.2-4.4c0-21.6-0.5-43.2,0.2-64.8c0.3-9.5-1.7-16.8-9.2-23.1
			c-6.2-5.3-11.2-11.9-17.5-18.7c0,37.5,0,74.1,0,111.2c-8.6,0-16.7,0-25,0c0,9,0,17.6,0,26.4C81.9,427,105.7,427,129.9,427z
			 M32.8,436.7c0,9.1,0,17.6,0,26.5c32.5,0,64.8,0,97.1,0c0-8.9,0-17.6,0-26.5C97.4,436.7,65.3,436.7,32.8,436.7z"/>
		<path class="st3" d="M165.5,400.6c8.6,0,17.2,0,25.9,0c0.6,0,4,0,4.6,0c0-1.3,0.1-3.3,0.1-5.7c-0.2-28.5-6.6-35.5-1.7-47.5
			c2.6-6.5,5.8-7.6,6.4-14c0.6-6.3-2.1-9.1-0.4-15c1.4-4.7,3.4-4.1,6.1-9.8c4.2-8.8,1.4-14.3,5.4-17.3c1.6-1.2,4.5-2.2,10.5-0.4
			c0,36.3,0,72.6,0,109.5c8.6,0,16.7,0,25.2,0c0,9.1,0,17.6,0,26.9c-2,0-4.1,0-6.2,0c-23.5,0-47,0-70.5-0.1c-3.6,0-5.4,0.5-5.5,4.8
			c0,4.5,2.3,4.6,5.6,4.6c31.8,0,63.7,0,95.5,0c2,0,3.9,0,6.2,0c0,9.1,0,17.6,0,26.5c-44.1,0-88,0-132.3,0c-0.1-1.8-0.3-3.2-0.3-4.6
			c0-31.3-0.6-62.6,0.3-93.9c0.6-19.9-7.8-35.3-20.3-49.3c-9.5-10.7-19.5-20.9-28.9-31.6c-4.7-5.4-6.4-12.1-6.3-19.5
			c0.1-9.9,4.8-16.6,13-21.4c1.3-0.8,2.5-2.1,3-3.5c2-5.9,5.5-10.1,11.7-11.9c1.3-0.4,3.1-1.7,3.4-2.9c1.6-5.9,5.9-8.9,11.2-11.2
			c1.8-0.8,3.8-2.5,4.5-4.3c2.9-6.9,8.3-11.1,16.1-11.2c3.2-0.1,5.4-0.9,7.4-3.8c5.1-7.1,13.1-8.9,21.3-6c2,0.7,4.8,0.4,6.7-0.5
			c9.9-4.9,17.7-3.6,25.2,4.4c1.1,1.1,3.1,1.9,4.6,1.9c14.2,0.4,22.2,12.2,16.6,25.2c-1.6,3.7,0.7,5.1,2.4,7.1
			c7.7,8.9,16.1,17.4,23,26.9c9,12.4,0.2,30.9-15,32.6c-3.8,0.4-7.7-1.5-11.7-1.9c-7.4-0.7-14.8-1.1-22.2-1.6
			c-0.6,0-1.9,0.7-1.9,1.1c-0.4,6.5-6.9,10.9-5.7,18.2c0.5,2.9-0.9,6.8-2.7,9.2c-2.4,3.3-3.3,6.3-3.1,10.4
			c0.3,7.4-3.1,12.8-10.2,15.5c-2.7,1-3.8,2.5-4.2,5.4c-0.9,6-4.1,10.7-9.2,14.2c-1.4,0.9-3.2,2.6-3.3,4
			C165.4,373.3,165.5,386.6,165.5,400.6z M175.2,223c-1.4,4.6-4.6,6.3-8.3,7.7c-7.5,2.8-12.6,8.1-16.1,15.9
			c7.1,1.4,13.5,0.5,18.9-2.7c5.2-3.1,9.5-7.7,14.5-11.8c0,1.6,0.4,2.9-0.1,3.9c-1.9,4.3-0.1,6.9,2.6,10.4c2.7,3.4,4,8.2,4.6,12.7
			c0.5,3.3,0.5,6.1,4,7.6c1.3,0.6,2.5,1.8,3.3,2.9c2.5,3.4,5.9,4.5,10,4.3c8.5-0.4,16.9,0.1,25.1,3.1c1.8,0.7,3.9,1,5.8,1
			c5.3-0.1,9-3.5,9.7-8.5c-2.7-2.5-8.2-2.4-7.7-8.9c3.2,1.4,5.8,2.6,8.4,3.8c0.4-0.3,0.8-0.5,1.2-0.8c-1-2.3-1.5-4.9-3-6.7
			c-6.3-7.5-12.8-14.9-19.3-22.2c-3.9-4.4-7.7-9.4-14.9-8c-0.9,0.2-2.1-0.1-2.9-0.6c-3.6-2.2-6.5-1.5-10.3,0.7
			c-8,4.7-18.5-0.9-17-7.5c3.9,0.8,8.2,3.1,11.6,2.1c3.5-1,6.1-5.1,9.4-7.9c1.1,1,2.8,2.7,4.7,4c3.1,2,6.6,3.6,10.2,1
			c3.4-2.5,4-6.2,2.8-9.9c-1.2-4-4.3-6.4-8.6-6.2c-2.8,0.1-5.5,0.9-8.3,1.4c-7.8-13.9-13.6-14.7-24.6-2.9c-4.4-3.7-8.7-8-15.3-5.4
			c-6.5,2.5-7.2,8.3-7.8,15.1c-5-5.1-10.1-7.1-15.6-2.9c-5.3,4-4,9.9-2.6,16.1c-5.2-3-9.6-4.3-13.8-0.7c-4.3,3.7-2.8,8.7-1.7,14
			c-5.1-2.2-10.4-3.4-13.3,1c-2.2,3.4-2.1,8.4-3,12.9c-3.8-1.2-8.4-1.1-11.7,3.7c-3.4,5-2,10,0.5,14.6c1.8,3.3,4.1,6.5,6.8,9.2
			c5,5.1,10.2,10,15.6,14.8c17.4,15.3,32.8,31.8,35.7,56.4c0.1,0.9,2.5,2.4,3.7,2.3c7.5-0.5,16.1-10.6,9.2-19.2
			c-1.1-1.4-1.6-3.4-2.6-5.7c3.5,1.3,6,2.5,8.7,3.1c4.7,1.1,8.7-1.6,10.3-6.5c1.5-4.5-0.6-6.6-4.8-8c-2.4-0.8-4.3-3.3-6.4-5
			c6.5,0.6,12.5,1.8,16.7-4.3c3.4-5-0.6-8.6-3.6-12.7c5.9-2.9,11-6.4,9.5-13.6c-1.6-7.5-7.7-9.2-14.7-9.8c0.9-1.9,1.7-3.3,2.3-4.8
			c2.2-5.2,1.1-10.4-2.6-14.3c-3.9-4.2-6.8-0.4-10.2,0.8c-10,3.7-19.9,3.7-29.8-0.6C146.2,233.7,160.3,222.3,175.2,223z"/>
		<path class="st4" d="M40.3,23.2c4.8,3.1,9.7,6.2,15.5,10c-0.4-6.8-0.8-12.3-1.2-18.6c8.3,4,15.9,8.2,21.5,14.8
			c3.5,4.1,7.4,5,12.2,5.2c14.3,0.5,28.1,3.2,41.2,8.9c11.4,4.9,21.7,11.4,31.9,20.6c-7.6-1.6-13.9-2.8-20.3-4.1
			c-0.3,0.5-0.5,1-0.8,1.5c22.7,8.5,39.6,23.2,49.3,45.8c-6.7-3.9-13-7.6-19.4-11.2c-0.4,0.4-0.7,0.9-1.1,1.3
			c9.9,8.7,16.9,19.4,22.9,30.8c2.5,4.7,5.4,9.4,9.2,13c5.7,5.5,12.3,10,18.4,15c1.1,0.9,2.8,2.3,2.8,3.5c-0.1,7.9-0.6,15.9-1,24.3
			c-12-3.8-22.4-9.8-31.2-18.7c-13.1-13.3-20.4-30.2-28.2-46.7c-9.1-19.3-19.6-37.5-36.2-51.4c-12.8-10.8-27.5-18-44.2-20.8
			c-1.3-0.2-4.2-2-7.7-4.6c-3.9-2.9-6.7-6-8.5-8.3c0-0.1,0-0.3,0-0.3c-0.1,0,0.8,6.9-1.5,12.7c-1.9,4.8-5.3,8.5-10.1,11.7
			c-3,2-5.6,4.7-8.1,7.4c-1.4,1.5-2.4,3.5-3.2,5.4c-1.8,4-2.8,8.4-5.2,11.9c-7.8,11.2-16,22.1-24.4,32.9c-4.2,5.4-1.5,10.8,0.1,15.5
			c0.8,2.1,6.2,3.4,9.6,3.6c2,0.1,5.1-1.9,6.2-3.8c5.7-10.3,16.9-13.1,25.6-19.2c0.7-0.5,2-0.3,2.9-0.2c17.8,3.1,30.5-9.9,30.8-27.4
			c0-2.3,0-4.6,0-7.9c4.2,4.2,6.4,8.7,6.6,13.8c0.3,6.7,3,12,7,17.4c11.7,16.1,13.9,34.4,9.2,53.3c-3,12-7.8,23.6-12,35.4
			c-4,11.1-6,22.4-5.1,34.3c0.1,1.7-0.9,4.1-2.2,5.3c-4.5,4.5-9.4,8.7-14.4,13.3c-0.3-1.2-0.8-3.1-1.4-5c-6-19.3-3.5-38.2,3.4-56.7
			c3.1-8.1,6.6-16,9.6-24.1c4.9-13.5,6.3-27.2-0.3-40.7c-0.7-1.3-1.5-2.6-2.3-3.8c-0.4-0.7-1-1.2-1.8-2.1
			c-6.9,5.2-14.8,5.9-22.9,7.2c-9.5,1.5-19,5.2-23.8,15.2c-2.9,6.1-12.5,9-20,6.3c-3.6-1.3-7.3-2.6-10.4-4.7c-1.9-1.3-3.5-3.7-4.4-6
			c-5.2-12.9-2.3-23.6,7.5-33.6c7-7.2,12.3-16.1,18.2-24.3c0.8-1,1.6-2.4,1.5-3.6c-0.7-8.9,5.2-14,11.1-18.9
			c1.7-1.5,2.8-2.8,3.3-4.3c0.6-2.2-0.1-4.1-0.3-4.9c-1.2-3.5-2.6-10.3-4.2-21.8C39.8,22.9,40.1,23.1,40.3,23.2z"/>
		<path class="st4" d="M222.2,0c0,49,0,97.5,0,147.1c-3.6-2.5-7.2-4-9.3-6.6c-5.6-7-10.7-14.3-15.6-21.8c-1.1-1.7-1-4.5-1-6.8
			c-0.1-25.8,0-51.6,0-77.4c0-2.5,0-5,0-7.9c-20.7,4.8-50.7,8.5-84.7,1c-8.6-1.9-16.5-4.3-23.7-6.9C86.4,13.9,85,6.9,83.5,0
			C129.5,0,175.6,0,222.2,0z"/>
		<path class="st4" d="M129.9,427c-24.3,0-48,0-72.1,0c0-8.8,0-17.3,0-26.4c8.3,0,16.4,0,25,0c0-37.1,0-73.7,0-111.2
			c3.1,2,7.3,5.1,11.6,9.8c1.9,2.1,11.2,12.7,15.1,32c3.9,19.6-0.2,26.8-0.2,64.8c0,1.3,0.1,2.6,0.2,4.4c6.8,0,13.4,0,20.3,0
			C129.9,409.5,129.9,418.1,129.9,427z"/>
		<path class="st4" d="M32.8,436.7c32.5,0,64.6,0,97.1,0c0,8.9,0,17.5,0,26.5c-32.4,0-64.6,0-97.1,0
			C32.8,454.3,32.8,445.7,32.8,436.7z"/>
		<path class="st2" d="M126.2,255.3c-5.7-0.9-9.2,2.4-10.5,9.2c-1.6,9.1,3.6,16.9,12.6,18.9c6.5,1.5,12.5-1.9,13.9-7.9
			c-8.1,3.2-13.9,2.5-17.7-2.3C120.4,268.1,120.8,262.8,126.2,255.3z M145.2,291.9c-2.1,5.2-1,9.8,2.9,13.3
			c3.8,3.3,11.4,4.2,15.9,1.8c4.2-2.3,6.5-5.7,6.1-10.9C156.4,304.2,154.8,303.9,145.2,291.9z M165.8,268.4c-4.6,2.4-5.9,6-5.3,10.2
			c0.6,4.8,3.3,8.2,8.1,9.7c3.9,1.2,7.3,0.4,10.4-2.8C166.8,282.7,164.2,279.5,165.8,268.4z M217.5,244c-1.3-6.1-6.7-10.6-12.3-9.3
			c-2.2,0.5-3.9,2.7-5.9,4.2c2.2,1.4,4.2,3.5,6.7,4.1C209.6,243.8,213.5,243.7,217.5,244z"/>
		<path class="st3" d="M126.2,255.3c-5.4,7.5-5.8,12.8-1.7,18c3.8,4.8,9.6,5.5,17.7,2.3c-1.4,5.9-7.4,9.3-13.9,7.9
			c-9-2-14.2-9.8-12.6-18.9C117,257.7,120.6,254.4,126.2,255.3z"/>
		<path class="st3" d="M145.2,291.9c9.6,12.1,11.1,12.3,24.9,4.1c0.4,5.2-1.9,8.6-6.1,10.9c-4.6,2.5-12.2,1.6-15.9-1.8
			C144.3,301.7,143.2,297.1,145.2,291.9z"/>
		<path class="st3" d="M165.8,268.4c-1.6,11.1,0.9,14.3,13.1,17.2c-3,3.1-6.4,3.9-10.4,2.8c-4.8-1.5-7.4-4.9-8.1-9.7
			C160,274.4,161.2,270.8,165.8,268.4z"/>
		<path class="st3" d="M217.5,244c-3.9-0.3-7.9-0.1-11.5-1c-2.4-0.6-4.4-2.7-6.7-4.1c1.9-1.4,3.7-3.7,5.9-4.2
			C210.8,233.4,216.2,237.9,217.5,244z"/>
	</g>
	<g id="Layer_2_00000143616790104789351910000012894114508141764228_" class="st0">
	</g>
	<path class="st5" d="M325.4,45.7"/>
</g>
</svg>
